<svg width="145" height="44" viewBox="0 0 145 44" fill="none" xmlns="http://www.w3.org/2000/svg">
<g clip-path="url(#clip0_1263_41398)">
<path d="M0 27.22H3.74V22.69C3.74 21.66 3.74 20.68 3.71 19.59C4.59 20.87 6.42 22.11 8.94 22.11C13.53 22.11 16.42 18.52 16.42 13.71C16.42 8.9 13.41 5.31 9.03 5.31C6.2 5.31 4.41 6.56 3.52 7.9V5.77H0V27.22ZM8.16 19.01C5.48 19.01 3.57 16.82 3.57 13.78C3.57 10.74 5.27 8.4 8.16 8.4C11.05 8.4 12.6 10.65 12.6 13.66C12.6 16.67 10.96 19.01 8.16 19.01ZM34.53 14.75C34.56 14.42 34.62 14.17 34.62 13.87C34.62 9.19 31.94 5.32 26.8 5.32C21.93 5.32 18.62 8.94 18.62 13.78C18.62 18.62 21.84 22.21 26.83 22.21C30.69 22.21 33.34 20.05 34.31 17.19H30.54C29.9 18.35 28.71 19.11 26.92 19.11C24.49 19.11 22.75 17.32 22.48 14.73C26.5 14.73 30.51 14.76 34.53 14.76V14.75ZM30.85 12.08H22.55C22.85 9.59 24.5 8.22 26.78 8.22C29.06 8.22 30.58 9.77 30.86 12.08H30.85ZM45.18 19.07C42.38 19.07 40.71 16.97 40.71 13.75C40.71 10.53 42.41 8.4 45.18 8.4C47.95 8.4 49.65 10.65 49.65 13.75C49.65 16.85 47.98 19.07 45.18 19.07ZM45.18 22.24C50.35 22.24 53.61 18.68 53.61 13.78C53.61 8.88 50.29 5.26 45.24 5.26C40.19 5.26 36.87 8.79 36.87 13.78C36.87 18.77 40 22.24 45.17 22.24H45.18ZM56.68 27.22H60.42V22.69C60.42 21.66 60.42 20.68 60.39 19.59C61.27 20.87 63.1 22.11 65.62 22.11C70.21 22.11 73.1 18.52 73.1 13.71C73.1 8.9 70.09 5.31 65.71 5.31C62.88 5.31 61.09 6.56 60.2 7.9V5.77H56.67V27.22H56.68ZM64.83 19.01C62.15 19.01 60.24 16.82 60.24 13.78C60.24 10.74 61.94 8.4 64.83 8.4C67.72 8.4 69.27 10.65 69.27 13.66C69.27 16.67 67.63 19.01 64.83 19.01ZM76.17 21.75H79.91V0H76.17V21.75ZM98.9 14.75C98.93 14.42 98.99 14.17 98.99 13.87C98.99 9.19 96.31 5.32 91.17 5.32C86.3 5.32 82.99 8.94 82.99 13.78C82.99 18.62 86.21 22.21 91.2 22.21C95.06 22.21 97.71 20.05 98.68 17.19H94.91C94.27 18.35 93.09 19.11 91.29 19.11C88.86 19.11 87.12 17.32 86.85 14.73C90.87 14.73 94.88 14.76 98.9 14.76V14.75ZM95.22 12.08H86.92C87.22 9.59 88.87 8.22 91.15 8.22C93.43 8.22 94.95 9.77 95.23 12.08H95.22ZM120.59 5.78V13.99C120.59 16.42 120.07 18.98 117.12 18.98C114.59 18.98 113.83 17 113.83 14.17V5.78H110.09V15.24C110.09 19.95 112.28 22.21 115.87 22.21C118.24 22.21 119.86 21.08 120.8 19.44V21.75H124.36C124.33 20.96 124.33 20.14 124.33 19.32V5.78H120.59ZM128.28 27.22H132.02V22.69C132.02 21.66 132.02 20.68 131.99 19.59C132.87 20.87 134.7 22.11 137.22 22.11C141.81 22.11 144.7 18.52 144.7 13.71C144.7 8.9 141.69 5.31 137.31 5.31C134.48 5.31 132.69 6.56 131.8 7.9V5.77H128.27V27.22H128.28ZM136.43 19.01C133.75 19.01 131.84 16.82 131.84 13.78C131.84 10.74 133.54 8.4 136.43 8.4C139.32 8.4 140.87 10.65 140.87 13.66C140.87 16.67 139.23 19.01 136.43 19.01Z" fill="#231F20"/>
<path d="M127.41 43.62C117.86 43.62 110.1 36.26 110.1 27.22H113.84C113.84 34.2 119.93 39.88 127.41 39.88C134.89 39.88 140.98 34.2 140.98 27.22H144.72C144.72 36.26 136.95 43.62 127.41 43.62Z" fill="#F2E938"/>
<path d="M1.07 35.9101H0V43.6601H1.11V42.3101C1.11 41.6201 1.09 40.9901 1.09 40.9601C1.43 41.4501 1.99 41.8201 2.99 41.8201C4.57 41.8201 5.66 40.5901 5.66 38.7801C5.66 36.9701 4.59 35.7301 2.95 35.7301C2.04 35.7301 1.4 36.1801 1.06 36.6501V35.9001L1.07 35.9101ZM2.76 36.6701C3.85 36.6701 4.48 37.5601 4.48 38.7901C4.48 40.0201 3.86 40.9001 2.76 40.9001C1.66 40.9001 1.04 40.0501 1.04 38.7901C1.04 37.5301 1.69 36.6701 2.76 36.6701ZM9.69 35.7601C7.89 35.7601 6.76 37.0201 6.76 38.8201C6.76 40.6201 7.81 41.8301 9.66 41.8301C11.51 41.8301 12.6 40.5801 12.6 38.8201C12.6 37.0601 11.48 35.7601 9.69 35.7601ZM9.66 36.6801C10.75 36.6801 11.39 37.5701 11.39 38.8001C11.39 40.0301 10.76 40.9001 9.66 40.9001C8.56 40.9001 7.94 40.0901 7.94 38.8001C7.94 37.5101 8.57 36.6801 9.66 36.6801ZM13.63 39.9301C13.86 41.2201 14.68 41.8201 16.09 41.8201C17.41 41.8201 18.37 41.1101 18.37 39.9901C18.37 39.0201 17.77 38.6701 16.61 38.3401L15.99 38.1601C15.29 37.9501 14.94 37.8201 14.94 37.3501C14.94 36.9201 15.28 36.6301 15.99 36.6301C16.66 36.6301 17.05 36.9201 17.21 37.4301H18.26C18.13 36.3001 17.29 35.7501 16.02 35.7501C14.75 35.7501 13.81 36.4201 13.81 37.4401C13.81 38.4601 14.52 38.8701 15.48 39.1001L15.89 39.2101C16.7 39.4101 17.25 39.5501 17.25 40.0901C17.25 40.6301 16.78 40.9001 16.12 40.9001C15.32 40.9001 14.91 40.5301 14.72 39.9101H13.62L13.63 39.9301ZM19.82 35.9101V41.6801H20.93V35.9101H19.82ZM19.8 35.0801H20.95V33.8301H19.8V35.0801ZM24.14 34.3501H23.02V35.9101H22.15V36.7701H23.02V40.3001C23.02 41.4501 23.67 41.7901 24.69 41.7901C24.83 41.7901 24.95 41.7801 25.12 41.7501V40.9301C25.04 40.9401 24.92 40.9501 24.85 40.9501C24.42 40.9501 24.15 40.8001 24.15 40.2301V36.7601H25.23V35.9001H24.15V34.3401L24.14 34.3501ZM26.52 35.9101V41.6801H27.63V35.9101H26.52ZM26.5 35.0801H27.65V33.8301H26.5V35.0801ZM32.18 41.6901L34.4 35.9201H33.2L32.35 38.4301C32.09 39.2801 31.9 39.6901 31.63 40.5001H31.61L30.97 38.5501L30.07 35.9201H28.8L30.96 41.6901H32.17H32.18ZM40.65 39.0901V38.7301C40.65 37.1801 39.78 35.7501 37.9 35.7501C36.17 35.7501 35.01 37.0201 35.01 38.8301C35.01 40.6401 36.12 41.8301 37.9 41.8301C39.28 41.8301 40.21 41.0801 40.53 40.0401H39.42C39.12 40.5301 38.74 40.9101 37.95 40.9101C36.85 40.9101 36.17 40.1101 36.13 39.0901H40.65ZM36.18 38.2101C36.3 37.2401 36.97 36.6501 37.88 36.6501C38.79 36.6501 39.4 37.2901 39.5 38.2101H36.18ZM44.2 35.9101C44.82 37.8001 45.4 39.8001 46.03 41.6801H47.29C47.51 40.8101 47.98 39.3001 48.42 37.4101H48.45C48.68 38.5001 49.21 40.6401 49.51 41.6801H50.83L52.67 35.9101H51.53L50.65 38.9801L50.55 39.3201L50.22 40.5501H50.2C49.97 39.6801 49.79 38.8801 49.62 38.1401L49.06 35.9101H47.87L47.08 39.0701C46.95 39.5901 46.83 39.9901 46.71 40.5501H46.68C46.54 39.9801 46.44 39.5901 46.32 39.1601L45.41 35.9001H44.22L44.2 35.9101ZM56.31 35.7601C54.51 35.7601 53.38 37.0201 53.38 38.8201C53.38 40.6201 54.43 41.8301 56.28 41.8301C58.13 41.8301 59.22 40.5801 59.22 38.8201C59.22 37.0601 58.1 35.7601 56.31 35.7601ZM56.27 36.6801C57.36 36.6801 58 37.5701 58 38.8001C58 40.0301 57.37 40.9001 56.27 40.9001C55.17 40.9001 54.55 40.0901 54.55 38.8001C54.55 37.5101 55.18 36.6801 56.27 36.6801ZM60.68 35.9101C60.69 36.0901 60.69 36.2601 60.69 36.4301V41.6901H61.8V38.7001C61.8 37.5501 62 36.7701 63.04 36.7701C63.16 36.7701 63.33 36.7701 63.43 36.8001V35.7901C63.35 35.7801 63.29 35.7701 63.14 35.7701C62.48 35.7701 61.93 36.1101 61.74 36.6501V35.9101H60.67H60.68ZM64.64 41.6901H65.76V38.7901L66.65 39.9201C67.13 40.5401 67.71 41.2501 68.07 41.6901H69.56L68.02 39.8501L67.33 39.0301L66.91 38.5101L69.3 35.9101H67.92L66.36 37.7701L65.77 38.4701V33.8201H64.65V41.6801L64.64 41.6901ZM71.65 35.9101H70.58V43.6601H71.69V42.3101C71.69 41.6201 71.67 40.9901 71.67 40.9601C72.01 41.4501 72.57 41.8201 73.57 41.8201C75.15 41.8201 76.24 40.5901 76.24 38.7801C76.24 36.9701 75.17 35.7301 73.53 35.7301C72.62 35.7301 71.98 36.1801 71.64 36.6501V35.9001L71.65 35.9101ZM73.35 36.6701C74.44 36.6701 75.07 37.5601 75.07 38.7901C75.07 40.0201 74.45 40.9001 73.35 40.9001C72.25 40.9001 71.63 40.0501 71.63 38.7901C71.63 37.5301 72.28 36.6701 73.35 36.6701ZM77.76 41.6901H78.87V33.8301H77.76V41.6901ZM85.47 41.6901C85.37 41.1601 85.33 40.4801 85.33 39.5401V38.4201C85.33 36.1701 84.26 35.7601 83.03 35.7601C81.65 35.7601 80.67 36.4901 80.61 37.7201H81.7C81.78 37.0301 82.17 36.6401 83.01 36.6401C83.77 36.6401 84.25 36.9701 84.25 38.1401C83.86 38.1701 83.45 38.2201 83.06 38.2701C81.52 38.4801 80.33 38.9001 80.33 40.1301C80.33 41.2101 81.21 41.8001 82.42 41.8001C83.34 41.8001 83.93 41.5301 84.37 40.9001C84.38 41.3301 84.39 41.4601 84.42 41.6901H85.46H85.47ZM84.27 38.9401C84.27 38.9401 84.26 39.0201 84.26 39.0701V39.2501C84.26 40.3801 83.72 41.0001 82.68 41.0001C81.98 41.0001 81.54 40.6601 81.54 40.1201C81.54 39.3301 82.4 39.1201 84.28 38.9401H84.27ZM91.17 39.8401C90.92 40.5101 90.38 40.9101 89.63 40.9101C88.53 40.9101 87.9 40.0801 87.9 38.8001C87.9 37.5201 88.54 36.6901 89.63 36.6901C90.39 36.6901 90.94 37.1201 91.19 37.8201H92.33C92.07 36.6001 91.16 35.7601 89.67 35.7601C87.88 35.7601 86.72 37.0601 86.72 38.7801C86.72 40.5001 87.84 41.8301 89.66 41.8301C91.12 41.8301 92.02 40.9801 92.32 39.8401H91.17ZM99.01 39.0901V38.7301C99.01 37.1801 98.14 35.7501 96.26 35.7501C94.53 35.7501 93.37 37.0201 93.37 38.8301C93.37 40.6401 94.48 41.8301 96.26 41.8301C97.64 41.8301 98.57 41.0801 98.89 40.0401H97.78C97.48 40.5301 97.1 40.9101 96.31 40.9101C95.21 40.9101 94.53 40.1101 94.5 39.0901H99.02H99.01ZM94.53 38.2101C94.65 37.2401 95.32 36.6501 96.24 36.6501C97.16 36.6501 97.76 37.2901 97.86 38.2101H94.54H94.53Z" fill="#231F20"/>
</g>
<defs>
<clipPath id="clip0_1263_41398">
<rect width="144.72" height="43.67" fill="white"/>
</clipPath>
</defs>
</svg>
